<svg id="Capa_1" data-name="Capa 1" xmlns="http://www.w3.org/2000/svg" viewBox="0 0 490 490"><defs><style>.cls-1{fill:#c95c52;}</style></defs><title>browser</title><path class="cls-1" d="M479.66,0H10.51A10.42,10.42,0,0,0,.09,10.43V479.57A10.42,10.42,0,0,0,10.51,490H479.66a10.42,10.42,0,0,0,10.43-10.43V10.43A10.42,10.42,0,0,0,479.66,0ZM20.94,20.85h448.3V122.33H20.94Zm448.3,448.3H20.94v-326h448.3v326Z" transform="translate(-0.09)"/><rect class="cls-1" x="296.75" y="55.71" width="20.85" height="31.77"/><rect class="cls-1" x="360.74" y="55.71" width="20.85" height="31.77"/><rect class="cls-1" x="424.74" y="55.71" width="20.85" height="31.77"/><polygon class="cls-1" points="177.09 324.26 119.86 297.16 177.09 270.78 177.09 244.58 90.46 285.4 90.46 309.82 177.09 350.64 177.09 324.26"/><polygon class="cls-1" points="295.08 224.44 269.77 224.44 195.09 387.9 220.22 387.9 295.08 224.44"/><polygon class="cls-1" points="399.54 285.4 312.91 244.58 312.91 270.78 370.14 297.16 312.91 324.26 312.91 350.64 399.54 309.82 399.54 285.4"/></svg>