<svg id="Layer_1" data-name="Layer 1" xmlns="http://www.w3.org/2000/svg" viewBox="0 0 511.45 512"><defs><style>.cls-1{fill:#c95c52;}</style></defs><title>creativity</title><g id="Page-1"><path id="Shape" class="cls-1" d="M441.75,375.47a114.79,114.79,0,0,0-.2-43.52l39.08-94.32a.61.61,0,0,0,0-.19,160.19,160.19,0,0,1,27.44-47.63,12.72,12.72,0,0,0,3.14-11.65l-16-69.21a8.61,8.61,0,0,0-.85-2.06c-.07-.13-.1-.28-.17-.4s-.36-.41-.53-.63a8.19,8.19,0,0,0-1.21-1.41,7.22,7.22,0,0,0-.93-.57,9.27,9.27,0,0,0-1.32-.8,8.46,8.46,0,0,0-2-.48c-.19,0-.36-.13-.56-.15a8.54,8.54,0,0,0-4.7,1c-.13.07-.28.09-.41.17h-.09l-60.25,37.61a12.71,12.71,0,0,0-6,10.49A160.25,160.25,0,0,1,401.8,205v.1l-19.53,47.21a114.56,114.56,0,0,0-30.48-11,461.73,461.73,0,0,0,4.42-83.91A93.12,93.12,0,0,0,377.39,89c-5.34-49.74-50.28-85.65-52.2-87.16a8.53,8.53,0,0,0-13.53,8.9c4.4,16.5.59,33.92-31.87,69.73a50,50,0,0,0-11.7,54.42,66.39,66.39,0,0,0,12.15,19.62c-2.06,13.19-3.68,25.67-4.8,37.83A427.59,427.59,0,0,0,274,252.85a115.62,115.62,0,0,0-21.24,14.81l-41.39-177c0-.18-.17-.31-.22-.47a7.94,7.94,0,0,0-.6-1.65L168.23,10.49a19.7,19.7,0,0,0-37,8.67L128,107.86a8.64,8.64,0,0,0,.21,1.9v.39l42.23,180.2a96,96,0,0,0-19.73,2.94L104.26,181.12A17.24,17.24,0,0,0,82,172L11,201.39a17.1,17.1,0,0,0-9.24,22.29l63,152A68.22,68.22,0,0,0,68.27,512H443.73a68.27,68.27,0,1,0-2-136.53Zm-8.69-220.88,35.77-22.32-12.66,30.58a8.54,8.54,0,0,0,15.77,6.54L484.6,138.8l9.48,41.07a169,169,0,0,0-24.75,40.85A35.1,35.1,0,0,1,421.63,201,168.42,168.42,0,0,0,433.06,154.59Zm-19.63,67a52,52,0,0,0,21.28,15.48,54.09,54.09,0,0,0,20.88,4.41,47.2,47.2,0,0,0,5.17-.32l-27.23,65.71a116,116,0,0,0-36.64-45.31Zm-116.91-61,42.88,2.62c.26,8,.17,16.21-.1,24.58a179.51,179.51,0,0,1-42.75-2.06l-3.19-.42c.85-8,1.89-16.18,3.15-24.72Zm-4.07-68.72c22.66-25,34.4-44.22,37.13-62.29a114,114,0,0,1,30.8,61.16,76.49,76.49,0,0,1-17.27,55.57q-25.29-1.53-50-3.07a35.59,35.59,0,0,1-.65-51.37Zm-.64,110.45,2.47.32a243.3,243.3,0,0,0,33.22,2.83c3.53,0,7.25-.28,11-.57-.77,11-2,22.45-3.66,34.3-2.11-.11-4.17-.32-6.29-.32a114.65,114.65,0,0,0-37.82,6.51,412.69,412.69,0,0,1,1.08-43.07Zm-66,99.79-24.41-104a8.54,8.54,0,0,0-16.62,3.89l21.94,93.6a97.53,97.53,0,0,0-18.6-4.63L150.66,131.19a40.43,40.43,0,0,0,16.7,3.64c.54,0,1.11-.08,1.66-.11l6,25.77a8.54,8.54,0,1,0,16.62-3.89l-6-25.78a40.43,40.43,0,0,0,14.9-11.35l38.08,162.8A113.92,113.92,0,0,0,225.8,302.16ZM173.66,117a28.31,28.31,0,0,1-28.49-11.41l1.08-30a50.44,50.44,0,0,0,9,.85,37.84,37.84,0,0,0,8.67-1,43.47,43.47,0,0,0,15.82-7.87l14.37,26.52A28.32,28.32,0,0,1,173.66,117ZM150.29,17.3a2.65,2.65,0,0,1,2.93,1.31l18.3,33.84A29.24,29.24,0,0,1,160,58.85a29,29,0,0,1-13.15-.63l1.39-38.45A2.65,2.65,0,0,1,150.29,17.3ZM88.53,187.73l6.52,15.76L63.48,216.56A8.53,8.53,0,0,0,70,232.31l31.58-13.08L108.13,235l-15.79,6.54a8.54,8.54,0,0,0,6.54,15.77l15.79-6.54,6.53,15.77-31.6,13.1a8.53,8.53,0,0,0,3.28,16.42,8.9,8.9,0,0,0,3.26-.65l31.57-13.08,6.9,16.67a99.08,99.08,0,0,0-55.25,67.25L17.51,217.12Zm355.2,307.2H68.27a51.2,51.2,0,0,1,0-102.4,50.52,50.52,0,0,1,14.6,2.12,8.53,8.53,0,0,0,11-8,81.06,81.06,0,0,1,129.7-63.23,8.52,8.52,0,0,0,13.08-3.84,98.16,98.16,0,0,1,185.71,63.35,8.53,8.53,0,0,0,10,10.86,53.85,53.85,0,0,1,11.39-1.25,51.2,51.2,0,0,1,0,102.4Z" transform="translate(-0.1 0)"/><path class="cls-1" d="M330.11,134a8.52,8.52,0,0,0,6.83-3.37,64,64,0,0,0,11.35-50.24,8.53,8.53,0,1,0-16.49,4.39,47.4,47.4,0,0,1-8.46,35.55A8.53,8.53,0,0,0,330.16,134Z" transform="translate(-0.1 0)"/><path class="cls-1" d="M318.89,392.53a41.94,41.94,0,0,0-18.3,4.27,51.2,51.2,0,0,0-88.45,50.26,8.53,8.53,0,1,0,15.7-6.69,34.71,34.71,0,0,1-2.82-13.7,34.11,34.11,0,0,1,65-14.51,7.86,7.86,0,0,0,.59.8c.14.29.29.58.45.86s.38.27.55.45a8.26,8.26,0,0,0,1.32,1.11,8.44,8.44,0,0,0,1.37.85,8.1,8.1,0,0,0,1.54.48,7.84,7.84,0,0,0,1.6.25,10.62,10.62,0,0,0,3.26-.55c.23,0,.45-.1.67-.16a7.86,7.86,0,0,0,.8-.59c.3-.14.6-.29.89-.46a25.19,25.19,0,0,1,15.84-5.6,25.6,25.6,0,0,1,23.21,14.89,8.53,8.53,0,0,0,15.53-7.08A42.67,42.67,0,0,0,318.89,392.53Z" transform="translate(-0.1 0)"/><path class="cls-1" d="M150.9,333.24c-1.29.41-31.43,10.84-31.43,42.23a8.53,8.53,0,0,0,17.06,0,29.34,29.34,0,0,1,19.82-26.06,8.55,8.55,0,0,0-5.45-16.21Z" transform="translate(-0.1 0)"/><path class="cls-1" d="M271,324a8.51,8.51,0,0,0,10.35-6.2,36.39,36.39,0,0,1,34.44-27.68,8.53,8.53,0,1,0,0-17.06,53.15,53.15,0,0,0-50.94,40.59A8.53,8.53,0,0,0,271,324Z" transform="translate(-0.1 0)"/></g></svg>